<svg xmlns="http://www.w3.org/2000/svg" xmlns:xlink="http://www.w3.org/1999/xlink" width="500" zoomAndPan="magnify" viewBox="0 0 375 374.999991" height="500" preserveAspectRatio="xMidYMid meet" version="1.2"><defs><clipPath id="88934d2f50"><path d="M 87 268.941406 L 288 268.941406 L 288 270.441406 L 87 270.441406 Z M 87 268.941406 "/></clipPath><clipPath id="becc0d737d"><path d="M 240 70 L 243.871094 70 L 243.871094 167 L 240 167 Z M 240 70 "/></clipPath><clipPath id="6770ea0503"><path d="M 126.703125 70 L 131 70 L 131 167 L 126.703125 167 Z M 126.703125 70 "/></clipPath><clipPath id="e5c9ba9a56"><path d="M 137 60.226562 L 233 60.226562 L 233 64 L 137 64 Z M 137 60.226562 "/></clipPath><clipPath id="bd3e945e80"><path d="M 137 173 L 233 173 L 233 177.394531 L 137 177.394531 Z M 137 173 "/></clipPath><clipPath id="6e68456677"><path d="M 232 60.226562 L 243.871094 60.226562 L 243.871094 71 L 232 71 Z M 232 60.226562 "/></clipPath><clipPath id="9385edff8c"><path d="M 126.703125 60.226562 L 138 60.226562 L 138 71 L 126.703125 71 Z M 126.703125 60.226562 "/></clipPath><clipPath id="a27231dd3d"><path d="M 232 166 L 243.871094 166 L 243.871094 177.394531 L 232 177.394531 Z M 232 166 "/></clipPath><clipPath id="36ff88c817"><path d="M 126.703125 166 L 138 166 L 138 177.394531 L 126.703125 177.394531 Z M 126.703125 166 "/></clipPath><clipPath id="ea95c77361"><path d="M 179.296875 75.710938 L 190.925781 75.710938 L 190.925781 81.273438 L 179.296875 81.273438 Z M 179.296875 75.710938 "/></clipPath><clipPath id="7139d828cf"><path d="M 182.078125 75.710938 L 188.128906 75.710938 C 188.867188 75.710938 189.578125 76.003906 190.097656 76.527344 C 190.621094 77.046875 190.914062 77.753906 190.914062 78.492188 C 190.914062 79.230469 190.621094 79.9375 190.097656 80.460938 C 189.578125 80.980469 188.867188 81.273438 188.128906 81.273438 L 182.078125 81.273438 C 181.339844 81.273438 180.632812 80.980469 180.109375 80.460938 C 179.589844 79.9375 179.296875 79.230469 179.296875 78.492188 C 179.296875 77.753906 179.589844 77.046875 180.109375 76.527344 C 180.632812 76.003906 181.339844 75.710938 182.078125 75.710938 Z M 182.078125 75.710938 "/></clipPath><clipPath id="4e0f4b3050"><path d="M 178.386719 141.5625 L 190 141.5625 L 190 147.125 L 178.386719 147.125 Z M 178.386719 141.5625 "/></clipPath><clipPath id="8ead96ffca"><path d="M 181.167969 141.5625 L 187.222656 141.5625 C 187.960938 141.5625 188.667969 141.855469 189.191406 142.375 C 189.710938 142.898438 190.003906 143.605469 190.003906 144.34375 C 190.003906 145.082031 189.710938 145.789062 189.191406 146.308594 C 188.667969 146.832031 187.960938 147.125 187.222656 147.125 L 181.167969 147.125 C 180.433594 147.125 179.722656 146.832031 179.203125 146.308594 C 178.679688 145.789062 178.386719 145.082031 178.386719 144.34375 C 178.386719 143.605469 178.679688 142.898438 179.203125 142.375 C 179.722656 141.855469 180.433594 141.5625 181.167969 141.5625 Z M 181.167969 141.5625 "/></clipPath></defs><g id="3c121bf6b0"><g clip-rule="nonzero" clip-path="url(#88934d2f50)"><path style=" stroke:none;fill-rule:nonzero;fill:#eabe6c;fill-opacity:1;" d="M 187.320312 270.441406 L 87.585938 269.691406 L 187.320312 268.941406 L 287.050781 269.691406 Z M 187.320312 270.441406 "/></g><g style="fill:#eabe6c;fill-opacity:1;"><g transform="translate(65.533545, 231.019871)"><path style="stroke:none" d="M 2.0625 0 L 2.0625 -26.296875 L 7.484375 -26.296875 C 12.546875 -26.296875 16.425781 -25.140625 19.125 -22.828125 C 21.820312 -20.515625 23.171875 -17.296875 23.171875 -13.171875 C 23.171875 -9.179688 21.820312 -5.988281 19.125 -3.59375 C 16.425781 -1.195312 12.546875 0 7.484375 0 Z M 5.234375 -0.5 L 7.484375 -0.5 C 11.410156 -0.5 14.394531 -1.613281 16.4375 -3.84375 C 18.488281 -6.070312 19.515625 -9.265625 19.515625 -13.421875 C 19.515625 -16.503906 19.007812 -18.953125 18 -20.765625 C 17 -22.578125 15.59375 -23.867188 13.78125 -24.640625 C 11.96875 -25.410156 9.867188 -25.796875 7.484375 -25.796875 L 5.234375 -25.796875 Z M 5.234375 -0.5 "/></g></g><g style="fill:#eabe6c;fill-opacity:1;"><g transform="translate(93.786687, 231.019871)"><path style="stroke:none" d="M 2.0625 0 L 2.0625 -26.296875 L 5.234375 -26.296875 L 5.234375 0 Z M 2.0625 0 "/></g></g><g style="fill:#eabe6c;fill-opacity:1;"><g transform="translate(105.399836, 231.019871)"><path style="stroke:none" d="M 13.78125 0.40625 C 11.226562 0.40625 9.015625 -0.171875 7.140625 -1.328125 C 5.265625 -2.484375 3.8125 -4.082031 2.78125 -6.125 C 1.757812 -8.175781 1.25 -10.523438 1.25 -13.171875 C 1.25 -15.816406 1.835938 -18.15625 3.015625 -20.1875 C 4.191406 -22.21875 5.734375 -23.8125 7.640625 -24.96875 C 9.554688 -26.125 11.601562 -26.703125 13.78125 -26.703125 C 15.988281 -26.703125 18.039062 -26.125 19.9375 -24.96875 C 21.832031 -23.8125 23.363281 -22.21875 24.53125 -20.1875 C 25.707031 -18.15625 26.296875 -15.816406 26.296875 -13.171875 C 26.296875 -10.523438 25.785156 -8.175781 24.765625 -6.125 C 23.742188 -4.082031 22.289062 -2.484375 20.40625 -1.328125 C 18.53125 -0.171875 16.320312 0.40625 13.78125 0.40625 Z M 13.78125 -0.09375 C 15.25 -0.09375 16.65625 -0.519531 18 -1.375 C 19.34375 -2.238281 20.441406 -3.648438 21.296875 -5.609375 C 22.148438 -7.566406 22.578125 -10.1875 22.578125 -13.46875 C 22.578125 -16.65625 22.140625 -19.175781 21.265625 -21.03125 C 20.398438 -22.894531 19.296875 -24.222656 17.953125 -25.015625 C 16.609375 -25.804688 15.21875 -26.203125 13.78125 -26.203125 C 12.332031 -26.203125 10.9375 -25.804688 9.59375 -25.015625 C 8.257812 -24.222656 7.15625 -22.894531 6.28125 -21.03125 C 5.414062 -19.175781 4.984375 -16.65625 4.984375 -13.46875 C 4.984375 -10.1875 5.410156 -7.566406 6.265625 -5.609375 C 7.117188 -3.648438 8.210938 -2.238281 9.546875 -1.375 C 10.890625 -0.519531 12.300781 -0.09375 13.78125 -0.09375 Z M 13.78125 -0.09375 "/></g></g><g style="fill:#eabe6c;fill-opacity:1;"><g transform="translate(137.272565, 231.019871)"><path style="stroke:none" d="M 14.125 0.40625 C 11.507812 0.40625 9.238281 -0.171875 7.3125 -1.328125 C 5.382812 -2.484375 3.890625 -4.082031 2.828125 -6.125 C 1.773438 -8.175781 1.25 -10.523438 1.25 -13.171875 C 1.25 -15.859375 1.859375 -18.210938 3.078125 -20.234375 C 4.304688 -22.265625 5.898438 -23.847656 7.859375 -24.984375 C 9.828125 -26.128906 11.929688 -26.703125 14.171875 -26.703125 C 15.515625 -26.703125 16.859375 -26.507812 18.203125 -26.125 C 19.546875 -25.738281 20.632812 -25.039062 21.46875 -24.03125 C 22.039062 -23.394531 22.25 -22.789062 22.09375 -22.21875 C 21.945312 -21.65625 21.585938 -21.253906 21.015625 -21.015625 C 20.347656 -20.785156 19.78125 -20.894531 19.3125 -21.34375 C 18.84375 -21.789062 18.609375 -22.335938 18.609375 -22.984375 C 18.609375 -24.054688 18.195312 -24.859375 17.375 -25.390625 C 16.550781 -25.929688 15.484375 -26.203125 14.171875 -26.203125 C 13.066406 -26.203125 11.96875 -26 10.875 -25.59375 C 9.789062 -25.1875 8.804688 -24.5 7.921875 -23.53125 C 7.035156 -22.5625 6.320312 -21.265625 5.78125 -19.640625 C 5.25 -18.015625 4.984375 -15.957031 4.984375 -13.46875 C 4.984375 -10.21875 5.410156 -7.617188 6.265625 -5.671875 C 7.117188 -3.734375 8.195312 -2.328125 9.5 -1.453125 C 10.207031 -1.015625 10.953125 -0.6875 11.734375 -0.46875 C 12.523438 -0.257812 13.320312 -0.15625 14.125 -0.15625 C 15.40625 -0.15625 16.394531 -0.28125 17.09375 -0.53125 C 17.800781 -0.78125 18.421875 -1.125 18.953125 -1.5625 L 18.953125 -9.5 L 13.578125 -9.5 L 13.578125 -10 L 22.125 -10 L 22.125 -1.5625 C 20.882812 -0.925781 19.582031 -0.4375 18.21875 -0.09375 C 16.863281 0.238281 15.5 0.40625 14.125 0.40625 Z M 14.125 0.40625 "/></g></g><g style="fill:#eabe6c;fill-opacity:1;"><g transform="translate(165.777063, 231.019871)"><path style="stroke:none" d="M 13.78125 0.40625 C 11.226562 0.40625 9.015625 -0.171875 7.140625 -1.328125 C 5.265625 -2.484375 3.8125 -4.082031 2.78125 -6.125 C 1.757812 -8.175781 1.25 -10.523438 1.25 -13.171875 C 1.25 -15.816406 1.835938 -18.15625 3.015625 -20.1875 C 4.191406 -22.21875 5.734375 -23.8125 7.640625 -24.96875 C 9.554688 -26.125 11.601562 -26.703125 13.78125 -26.703125 C 15.988281 -26.703125 18.039062 -26.125 19.9375 -24.96875 C 21.832031 -23.8125 23.363281 -22.21875 24.53125 -20.1875 C 25.707031 -18.15625 26.296875 -15.816406 26.296875 -13.171875 C 26.296875 -10.523438 25.785156 -8.175781 24.765625 -6.125 C 23.742188 -4.082031 22.289062 -2.484375 20.40625 -1.328125 C 18.53125 -0.171875 16.320312 0.40625 13.78125 0.40625 Z M 13.78125 -0.09375 C 15.25 -0.09375 16.65625 -0.519531 18 -1.375 C 19.34375 -2.238281 20.441406 -3.648438 21.296875 -5.609375 C 22.148438 -7.566406 22.578125 -10.1875 22.578125 -13.46875 C 22.578125 -16.65625 22.140625 -19.175781 21.265625 -21.03125 C 20.398438 -22.894531 19.296875 -24.222656 17.953125 -25.015625 C 16.609375 -25.804688 15.21875 -26.203125 13.78125 -26.203125 C 12.332031 -26.203125 10.9375 -25.804688 9.59375 -25.015625 C 8.257812 -24.222656 7.15625 -22.894531 6.28125 -21.03125 C 5.414062 -19.175781 4.984375 -16.65625 4.984375 -13.46875 C 4.984375 -10.1875 5.410156 -7.566406 6.265625 -5.609375 C 7.117188 -3.648438 8.210938 -2.238281 9.546875 -1.375 C 10.890625 -0.519531 12.300781 -0.09375 13.78125 -0.09375 Z M 13.78125 -0.09375 "/></g></g><g style="fill:#eabe6c;fill-opacity:1;"><g transform="translate(197.649792, 231.019871)"><path style="stroke:none" d=""/></g></g><g style="fill:#eabe6c;fill-opacity:1;"><g transform="translate(212.228985, 231.019871)"><path style="stroke:none" d="M 6.6875 0.40625 C 5.71875 0.40625 4.835938 0.171875 4.046875 -0.296875 C 3.253906 -0.765625 2.640625 -1.359375 2.203125 -2.078125 C 1.773438 -2.804688 1.5625 -3.539062 1.5625 -4.28125 C 1.5625 -4.875 1.785156 -5.351562 2.234375 -5.71875 C 2.691406 -6.09375 3.15625 -6.28125 3.625 -6.28125 C 4.0625 -6.28125 4.410156 -6.144531 4.671875 -5.875 C 4.941406 -5.613281 5.078125 -5.265625 5.078125 -4.828125 C 5.078125 -4.085938 4.914062 -3.550781 4.59375 -3.21875 C 4.28125 -2.882812 4.125 -2.429688 4.125 -1.859375 C 4.125 -1.328125 4.359375 -0.898438 4.828125 -0.578125 C 5.296875 -0.253906 5.898438 -0.09375 6.640625 -0.09375 C 7.410156 -0.09375 7.882812 -0.503906 8.0625 -1.328125 C 8.25 -2.148438 8.34375 -3.015625 8.34375 -3.921875 L 8.34375 -26.296875 L 11.515625 -26.296875 L 11.515625 -4.78125 C 11.515625 -3.5 11.28125 -2.484375 10.8125 -1.734375 C 10.34375 -0.984375 9.738281 -0.4375 9 -0.09375 C 8.257812 0.238281 7.488281 0.40625 6.6875 0.40625 Z M 6.6875 0.40625 "/></g></g><g style="fill:#eabe6c;fill-opacity:1;"><g transform="translate(230.126124, 231.019871)"><path style="stroke:none" d="M 13.78125 0.40625 C 11.226562 0.40625 9.015625 -0.171875 7.140625 -1.328125 C 5.265625 -2.484375 3.8125 -4.082031 2.78125 -6.125 C 1.757812 -8.175781 1.25 -10.523438 1.25 -13.171875 C 1.25 -15.816406 1.835938 -18.15625 3.015625 -20.1875 C 4.191406 -22.21875 5.734375 -23.8125 7.640625 -24.96875 C 9.554688 -26.125 11.601562 -26.703125 13.78125 -26.703125 C 15.988281 -26.703125 18.039062 -26.125 19.9375 -24.96875 C 21.832031 -23.8125 23.363281 -22.21875 24.53125 -20.1875 C 25.707031 -18.15625 26.296875 -15.816406 26.296875 -13.171875 C 26.296875 -10.523438 25.785156 -8.175781 24.765625 -6.125 C 23.742188 -4.082031 22.289062 -2.484375 20.40625 -1.328125 C 18.53125 -0.171875 16.320312 0.40625 13.78125 0.40625 Z M 13.78125 -0.09375 C 15.25 -0.09375 16.65625 -0.519531 18 -1.375 C 19.34375 -2.238281 20.441406 -3.648438 21.296875 -5.609375 C 22.148438 -7.566406 22.578125 -10.1875 22.578125 -13.46875 C 22.578125 -16.65625 22.140625 -19.175781 21.265625 -21.03125 C 20.398438 -22.894531 19.296875 -24.222656 17.953125 -25.015625 C 16.609375 -25.804688 15.21875 -26.203125 13.78125 -26.203125 C 12.332031 -26.203125 10.9375 -25.804688 9.59375 -25.015625 C 8.257812 -24.222656 7.15625 -22.894531 6.28125 -21.03125 C 5.414062 -19.175781 4.984375 -16.65625 4.984375 -13.46875 C 4.984375 -10.1875 5.410156 -7.566406 6.265625 -5.609375 C 7.117188 -3.648438 8.210938 -2.238281 9.546875 -1.375 C 10.890625 -0.519531 12.300781 -0.09375 13.78125 -0.09375 Z M 13.78125 -0.09375 "/></g></g><g style="fill:#eabe6c;fill-opacity:1;"><g transform="translate(261.998853, 231.019871)"><path style="stroke:none" d="M 10.703125 0.40625 C 9.035156 0.40625 7.519531 0.0351562 6.15625 -0.703125 C 4.800781 -1.441406 3.710938 -2.394531 2.890625 -3.5625 C 2.066406 -4.738281 1.625 -5.984375 1.5625 -7.296875 C 1.53125 -8.191406 1.707031 -8.890625 2.09375 -9.390625 C 2.476562 -9.898438 2.953125 -10.15625 3.515625 -10.15625 C 4.117188 -10.15625 4.570312 -9.960938 4.875 -9.578125 C 5.175781 -9.191406 5.328125 -8.796875 5.328125 -8.390625 C 5.328125 -7.785156 5.300781 -7.289062 5.25 -6.90625 C 5.195312 -6.519531 5.144531 -6.144531 5.09375 -5.78125 C 5.050781 -5.414062 5.03125 -4.894531 5.03125 -4.21875 C 5.03125 -3.65625 5.28125 -3.050781 5.78125 -2.40625 C 6.28125 -1.769531 6.96875 -1.222656 7.84375 -0.765625 C 8.71875 -0.316406 9.671875 -0.09375 10.703125 -0.09375 C 11.609375 -0.09375 12.53125 -0.226562 13.46875 -0.5 C 14.414062 -0.769531 15.207031 -1.207031 15.84375 -1.8125 C 16.476562 -2.414062 16.796875 -3.21875 16.796875 -4.21875 C 16.796875 -5.695312 16.457031 -6.960938 15.78125 -8.015625 C 15.113281 -9.078125 14.242188 -9.992188 13.171875 -10.765625 C 12.097656 -11.535156 10.957031 -12.238281 9.75 -12.875 C 8.539062 -13.507812 7.398438 -14.148438 6.328125 -14.796875 C 5.253906 -15.453125 4.382812 -16.175781 3.71875 -16.96875 C 3.050781 -17.757812 2.71875 -18.707031 2.71875 -19.8125 C 2.71875 -20.945312 3 -22.039062 3.5625 -23.09375 C 4.132812 -24.15625 5.003906 -25.019531 6.171875 -25.6875 C 7.347656 -26.363281 8.828125 -26.703125 10.609375 -26.703125 C 11.953125 -26.703125 13.207031 -26.445312 14.375 -25.9375 C 15.550781 -25.4375 16.5 -24.785156 17.21875 -23.984375 C 17.9375 -23.179688 18.296875 -22.34375 18.296875 -21.46875 C 18.296875 -20.769531 18.117188 -20.257812 17.765625 -19.9375 C 17.421875 -19.613281 17 -19.453125 16.5 -19.453125 C 15.988281 -19.453125 15.546875 -19.644531 15.171875 -20.03125 C 14.804688 -20.414062 14.625 -21.03125 14.625 -21.875 C 14.625 -23.039062 14.320312 -24.050781 13.71875 -24.90625 C 13.125 -25.769531 12.054688 -26.203125 10.515625 -26.203125 C 8.796875 -26.203125 7.398438 -25.75 6.328125 -24.84375 C 5.253906 -23.9375 4.71875 -22.945312 4.71875 -21.875 C 4.71875 -20.96875 5.0625 -20.144531 5.75 -19.40625 C 6.4375 -18.664062 7.328125 -17.960938 8.421875 -17.296875 C 9.515625 -16.628906 10.679688 -15.96875 11.921875 -15.3125 C 13.160156 -14.65625 14.320312 -13.945312 15.40625 -13.1875 C 16.5 -12.4375 17.390625 -11.59375 18.078125 -10.65625 C 18.765625 -9.71875 19.109375 -8.644531 19.109375 -7.4375 C 19.109375 -5.894531 18.8125 -4.613281 18.21875 -3.59375 C 17.632812 -2.570312 16.898438 -1.765625 16.015625 -1.171875 C 15.128906 -0.585938 14.207031 -0.179688 13.25 0.046875 C 12.289062 0.285156 11.441406 0.40625 10.703125 0.40625 Z M 10.703125 0.40625 "/></g></g><g style="fill:#eabe6c;fill-opacity:1;"><g transform="translate(286.984334, 231.019871)"><path style="stroke:none" d="M 9.359375 -29.5625 L 8.796875 -29.5625 C 10.171875 -31.238281 11.25 -32.554688 12.03125 -33.515625 C 12.820312 -34.472656 13.410156 -35.175781 13.796875 -35.625 C 14.179688 -36.070312 14.484375 -36.363281 14.703125 -36.5 C 14.921875 -36.632812 15.148438 -36.703125 15.390625 -36.703125 C 15.648438 -36.703125 15.921875 -36.582031 16.203125 -36.34375 C 16.492188 -36.113281 16.640625 -35.78125 16.640625 -35.34375 C 16.640625 -35.007812 16.4375 -34.695312 16.03125 -34.40625 C 15.632812 -34.125 15.351562 -33.882812 15.1875 -33.6875 Z M 2.0625 0 L 2.0625 -26.296875 L 16.59375 -26.296875 L 16.59375 -25.796875 L 5.234375 -25.796875 L 5.234375 -14.328125 L 12.46875 -14.328125 L 12.46875 -13.78125 L 5.234375 -13.78125 L 5.234375 -0.5 L 16.59375 -0.5 L 16.59375 0 Z M 2.0625 0 "/></g></g><g style="fill:#ffffff;fill-opacity:1;"><g transform="translate(64.157256, 254.397317)"><path style="stroke:none" d="M 3.953125 0.125 C 3.441406 0.125 2.972656 0.0390625 2.546875 -0.125 C 2.128906 -0.300781 1.757812 -0.539062 1.4375 -0.84375 C 1.125 -1.15625 0.878906 -1.515625 0.703125 -1.921875 C 0.523438 -2.335938 0.4375 -2.785156 0.4375 -3.265625 C 0.4375 -3.742188 0.523438 -4.1875 0.703125 -4.59375 C 0.878906 -5 1.125 -5.359375 1.4375 -5.671875 C 1.75 -5.984375 2.117188 -6.222656 2.546875 -6.390625 C 2.972656 -6.554688 3.441406 -6.640625 3.953125 -6.640625 C 4.472656 -6.640625 4.953125 -6.539062 5.390625 -6.34375 C 5.828125 -6.15625 6.195312 -5.890625 6.5 -5.546875 C 6.550781 -5.492188 6.578125 -5.429688 6.578125 -5.359375 C 6.585938 -5.296875 6.5625 -5.238281 6.5 -5.1875 L 6.25 -4.984375 C 6.132812 -4.890625 6.015625 -4.898438 5.890625 -5.015625 C 5.671875 -5.253906 5.390625 -5.453125 5.046875 -5.609375 C 4.703125 -5.773438 4.332031 -5.859375 3.9375 -5.859375 C 3.445312 -5.859375 3.003906 -5.738281 2.609375 -5.5 C 2.222656 -5.269531 1.910156 -4.957031 1.671875 -4.5625 C 1.441406 -4.175781 1.328125 -3.742188 1.328125 -3.265625 C 1.328125 -2.785156 1.441406 -2.347656 1.671875 -1.953125 C 1.910156 -1.554688 2.222656 -1.242188 2.609375 -1.015625 C 3.003906 -0.785156 3.445312 -0.671875 3.9375 -0.671875 C 4.332031 -0.671875 4.703125 -0.75 5.046875 -0.90625 C 5.390625 -1.0625 5.671875 -1.265625 5.890625 -1.515625 C 6.015625 -1.628906 6.132812 -1.640625 6.25 -1.546875 L 6.5 -1.328125 C 6.5625 -1.285156 6.585938 -1.226562 6.578125 -1.15625 C 6.578125 -1.082031 6.550781 -1.019531 6.5 -0.96875 C 6.195312 -0.632812 5.820312 -0.367188 5.375 -0.171875 C 4.9375 0.0234375 4.460938 0.125 3.953125 0.125 Z M 3.953125 0.125 "/></g></g><g style="fill:#ffffff;fill-opacity:1;"><g transform="translate(77.788382, 254.397317)"><path style="stroke:none" d="M 3.953125 0.125 C 3.441406 0.125 2.972656 0.0390625 2.546875 -0.125 C 2.117188 -0.300781 1.75 -0.539062 1.4375 -0.84375 C 1.125 -1.15625 0.878906 -1.515625 0.703125 -1.921875 C 0.523438 -2.335938 0.4375 -2.785156 0.4375 -3.265625 C 0.4375 -3.742188 0.523438 -4.1875 0.703125 -4.59375 C 0.878906 -5 1.125 -5.359375 1.4375 -5.671875 C 1.75 -5.984375 2.117188 -6.222656 2.546875 -6.390625 C 2.972656 -6.554688 3.441406 -6.640625 3.953125 -6.640625 C 4.460938 -6.640625 4.929688 -6.554688 5.359375 -6.390625 C 5.785156 -6.222656 6.15625 -5.984375 6.46875 -5.671875 C 6.789062 -5.359375 7.039062 -5 7.21875 -4.59375 C 7.394531 -4.1875 7.484375 -3.742188 7.484375 -3.265625 C 7.484375 -2.785156 7.394531 -2.335938 7.21875 -1.921875 C 7.039062 -1.515625 6.789062 -1.15625 6.46875 -0.84375 C 6.15625 -0.539062 5.785156 -0.300781 5.359375 -0.125 C 4.929688 0.0390625 4.460938 0.125 3.953125 0.125 Z M 3.953125 -0.671875 C 4.453125 -0.671875 4.898438 -0.785156 5.296875 -1.015625 C 5.691406 -1.242188 6.003906 -1.554688 6.234375 -1.953125 C 6.460938 -2.347656 6.578125 -2.785156 6.578125 -3.265625 C 6.578125 -3.753906 6.460938 -4.191406 6.234375 -4.578125 C 6.003906 -4.960938 5.691406 -5.269531 5.296875 -5.5 C 4.898438 -5.738281 4.453125 -5.859375 3.953125 -5.859375 C 3.460938 -5.859375 3.019531 -5.738281 2.625 -5.5 C 2.226562 -5.269531 1.910156 -4.960938 1.671875 -4.578125 C 1.441406 -4.191406 1.328125 -3.753906 1.328125 -3.265625 C 1.328125 -2.785156 1.441406 -2.347656 1.671875 -1.953125 C 1.910156 -1.554688 2.226562 -1.242188 2.625 -1.015625 C 3.019531 -0.785156 3.460938 -0.671875 3.953125 -0.671875 Z M 3.953125 -0.671875 "/></g></g><g style="fill:#ffffff;fill-opacity:1;"><g transform="translate(92.423428, 254.397317)"><path style="stroke:none" d="M 5.625 -6.53125 L 6 -6.53125 C 6.175781 -6.53125 6.265625 -6.445312 6.265625 -6.28125 L 6.265625 -0.25 C 6.265625 -0.144531 6.226562 -0.0664062 6.15625 -0.015625 C 6.09375 0.0351562 6.015625 0.0625 5.921875 0.0625 L 5.859375 0.0625 C 5.773438 0.0625 5.695312 0.0351562 5.625 -0.015625 C 5.550781 -0.0664062 5.484375 -0.128906 5.421875 -0.203125 L 1.765625 -5.109375 L 1.765625 -0.25 C 1.765625 -0.0820312 1.679688 0 1.515625 0 L 1.140625 0 C 0.972656 0 0.890625 -0.0820312 0.890625 -0.25 L 0.890625 -6.265625 C 0.890625 -6.378906 0.921875 -6.457031 0.984375 -6.5 C 1.054688 -6.550781 1.132812 -6.578125 1.21875 -6.578125 L 1.28125 -6.578125 C 1.375 -6.578125 1.453125 -6.550781 1.515625 -6.5 C 1.585938 -6.457031 1.660156 -6.394531 1.734375 -6.3125 L 5.375 -1.421875 L 5.375 -6.28125 C 5.375 -6.445312 5.457031 -6.53125 5.625 -6.53125 Z M 5.625 -6.53125 "/></g></g><g style="fill:#ffffff;fill-opacity:1;"><g transform="translate(106.285462, 254.397317)"><path style="stroke:none" d="M 2.828125 0.125 C 2.335938 0.125 1.875 0.0351562 1.4375 -0.140625 C 1.007812 -0.316406 0.671875 -0.570312 0.421875 -0.90625 C 0.285156 -1.039062 0.269531 -1.164062 0.375 -1.28125 L 0.5625 -1.5 C 0.675781 -1.613281 0.796875 -1.613281 0.921875 -1.5 C 1.117188 -1.226562 1.382812 -1.015625 1.71875 -0.859375 C 2.0625 -0.703125 2.410156 -0.625 2.765625 -0.625 C 3.179688 -0.625 3.519531 -0.726562 3.78125 -0.9375 C 4.039062 -1.144531 4.171875 -1.40625 4.171875 -1.71875 C 4.171875 -1.988281 4.085938 -2.195312 3.921875 -2.34375 C 3.765625 -2.488281 3.5625 -2.613281 3.3125 -2.71875 C 3.0625 -2.820312 2.796875 -2.921875 2.515625 -3.015625 C 2.210938 -3.128906 1.921875 -3.257812 1.640625 -3.40625 C 1.359375 -3.5625 1.125 -3.757812 0.9375 -4 C 0.757812 -4.238281 0.671875 -4.539062 0.671875 -4.90625 C 0.671875 -5.238281 0.757812 -5.535156 0.9375 -5.796875 C 1.125 -6.054688 1.378906 -6.257812 1.703125 -6.40625 C 2.023438 -6.5625 2.398438 -6.640625 2.828125 -6.640625 C 3.203125 -6.640625 3.550781 -6.578125 3.875 -6.453125 C 4.207031 -6.335938 4.5 -6.15625 4.75 -5.90625 C 4.894531 -5.769531 4.910156 -5.644531 4.796875 -5.53125 L 4.640625 -5.34375 C 4.523438 -5.21875 4.394531 -5.21875 4.25 -5.34375 C 3.875 -5.738281 3.40625 -5.9375 2.84375 -5.9375 C 2.457031 -5.9375 2.148438 -5.835938 1.921875 -5.640625 C 1.691406 -5.453125 1.578125 -5.210938 1.578125 -4.921875 C 1.578125 -4.628906 1.695312 -4.394531 1.9375 -4.21875 C 2.1875 -4.050781 2.484375 -3.898438 2.828125 -3.765625 C 3.097656 -3.660156 3.363281 -3.554688 3.625 -3.453125 C 3.894531 -3.347656 4.132812 -3.222656 4.34375 -3.078125 C 4.5625 -2.941406 4.738281 -2.765625 4.875 -2.546875 C 5.007812 -2.328125 5.078125 -2.054688 5.078125 -1.734375 C 5.078125 -1.359375 4.976562 -1.03125 4.78125 -0.75 C 4.582031 -0.46875 4.3125 -0.25 3.96875 -0.09375 C 3.632812 0.0507812 3.253906 0.125 2.828125 0.125 Z M 2.828125 0.125 "/></g></g><g style="fill:#ffffff;fill-opacity:1;"><g transform="translate(118.420764, 254.397317)"><path style="stroke:none" d="M 3.609375 0.125 C 3.046875 0.125 2.550781 0.00390625 2.125 -0.234375 C 1.707031 -0.472656 1.378906 -0.804688 1.140625 -1.234375 C 0.910156 -1.671875 0.796875 -2.175781 0.796875 -2.75 L 0.796875 -6.28125 C 0.796875 -6.445312 0.878906 -6.53125 1.046875 -6.53125 L 1.421875 -6.53125 C 1.585938 -6.53125 1.671875 -6.445312 1.671875 -6.28125 L 1.671875 -2.703125 C 1.671875 -2.296875 1.753906 -1.941406 1.921875 -1.640625 C 2.085938 -1.335938 2.316406 -1.097656 2.609375 -0.921875 C 2.898438 -0.753906 3.234375 -0.671875 3.609375 -0.671875 C 4.003906 -0.671875 4.34375 -0.753906 4.625 -0.921875 C 4.914062 -1.097656 5.140625 -1.335938 5.296875 -1.640625 C 5.460938 -1.941406 5.546875 -2.296875 5.546875 -2.703125 L 5.546875 -6.28125 C 5.546875 -6.445312 5.628906 -6.53125 5.796875 -6.53125 L 6.15625 -6.53125 C 6.332031 -6.53125 6.421875 -6.445312 6.421875 -6.28125 L 6.421875 -2.75 C 6.421875 -2.175781 6.300781 -1.671875 6.0625 -1.234375 C 5.832031 -0.804688 5.503906 -0.472656 5.078125 -0.234375 C 4.660156 0.00390625 4.171875 0.125 3.609375 0.125 Z M 3.609375 0.125 "/></g></g><g style="fill:#ffffff;fill-opacity:1;"><g transform="translate(132.343028, 254.397317)"><path style="stroke:none" d="M 4.640625 0 L 1.140625 0 C 0.972656 0 0.890625 -0.0820312 0.890625 -0.25 L 0.890625 -6.28125 C 0.890625 -6.445312 0.972656 -6.53125 1.140625 -6.53125 L 1.515625 -6.53125 C 1.679688 -6.53125 1.765625 -6.445312 1.765625 -6.28125 L 1.765625 -0.71875 L 4.640625 -0.71875 C 4.804688 -0.71875 4.890625 -0.640625 4.890625 -0.484375 L 4.890625 -0.234375 C 4.890625 -0.078125 4.804688 0 4.640625 0 Z M 4.640625 0 "/></g></g><g style="fill:#ffffff;fill-opacity:1;"><g transform="translate(144.116914, 254.397317)"><path style="stroke:none" d="M 2.96875 0 L 2.59375 0 C 2.425781 0 2.34375 -0.0820312 2.34375 -0.25 L 2.34375 -5.796875 L 0.40625 -5.796875 C 0.226562 -5.796875 0.140625 -5.878906 0.140625 -6.046875 L 0.140625 -6.28125 C 0.140625 -6.445312 0.226562 -6.53125 0.40625 -6.53125 L 5.1875 -6.53125 C 5.351562 -6.53125 5.4375 -6.445312 5.4375 -6.28125 L 5.4375 -6.046875 C 5.4375 -5.878906 5.351562 -5.796875 5.1875 -5.796875 L 3.21875 -5.796875 L 3.21875 -0.25 C 3.21875 -0.0820312 3.132812 0 2.96875 0 Z M 2.96875 0 "/></g></g><g style="fill:#ffffff;fill-opacity:1;"><g transform="translate(156.412835, 254.397317)"><path style="stroke:none" d="M 3.953125 0.125 C 3.441406 0.125 2.972656 0.0390625 2.546875 -0.125 C 2.117188 -0.300781 1.75 -0.539062 1.4375 -0.84375 C 1.125 -1.15625 0.878906 -1.515625 0.703125 -1.921875 C 0.523438 -2.335938 0.4375 -2.785156 0.4375 -3.265625 C 0.4375 -3.742188 0.523438 -4.1875 0.703125 -4.59375 C 0.878906 -5 1.125 -5.359375 1.4375 -5.671875 C 1.75 -5.984375 2.117188 -6.222656 2.546875 -6.390625 C 2.972656 -6.554688 3.441406 -6.640625 3.953125 -6.640625 C 4.460938 -6.640625 4.929688 -6.554688 5.359375 -6.390625 C 5.785156 -6.222656 6.15625 -5.984375 6.46875 -5.671875 C 6.789062 -5.359375 7.039062 -5 7.21875 -4.59375 C 7.394531 -4.1875 7.484375 -3.742188 7.484375 -3.265625 C 7.484375 -2.785156 7.394531 -2.335938 7.21875 -1.921875 C 7.039062 -1.515625 6.789062 -1.15625 6.46875 -0.84375 C 6.15625 -0.539062 5.785156 -0.300781 5.359375 -0.125 C 4.929688 0.0390625 4.460938 0.125 3.953125 0.125 Z M 3.953125 -0.671875 C 4.453125 -0.671875 4.898438 -0.785156 5.296875 -1.015625 C 5.691406 -1.242188 6.003906 -1.554688 6.234375 -1.953125 C 6.460938 -2.347656 6.578125 -2.785156 6.578125 -3.265625 C 6.578125 -3.753906 6.460938 -4.191406 6.234375 -4.578125 C 6.003906 -4.960938 5.691406 -5.269531 5.296875 -5.5 C 4.898438 -5.738281 4.453125 -5.859375 3.953125 -5.859375 C 3.460938 -5.859375 3.019531 -5.738281 2.625 -5.5 C 2.226562 -5.269531 1.910156 -4.960938 1.671875 -4.578125 C 1.441406 -4.191406 1.328125 -3.753906 1.328125 -3.265625 C 1.328125 -2.785156 1.441406 -2.347656 1.671875 -1.953125 C 1.910156 -1.554688 2.226562 -1.242188 2.625 -1.015625 C 3.019531 -0.785156 3.460938 -0.671875 3.953125 -0.671875 Z M 3.953125 -0.671875 "/></g></g><g style="fill:#ffffff;fill-opacity:1;"><g transform="translate(171.047882, 254.397317)"><path style="stroke:none" d="M 4.5 -2.890625 L 5.96875 -0.265625 C 6.019531 -0.191406 6.023438 -0.128906 5.984375 -0.078125 C 5.953125 -0.0234375 5.890625 0 5.796875 0 L 5.328125 0 C 5.234375 0 5.164062 -0.0195312 5.125 -0.0625 C 5.09375 -0.101562 5.054688 -0.160156 5.015625 -0.234375 L 3.671875 -2.71875 C 3.628906 -2.707031 3.582031 -2.703125 3.53125 -2.703125 C 3.488281 -2.703125 3.445312 -2.703125 3.40625 -2.703125 L 1.765625 -2.703125 L 1.765625 -0.25 C 1.765625 -0.0820312 1.679688 0 1.515625 0 L 1.140625 0 C 0.972656 0 0.890625 -0.0820312 0.890625 -0.25 L 0.890625 -6.28125 C 0.890625 -6.445312 0.972656 -6.53125 1.140625 -6.53125 L 3.359375 -6.53125 C 4.066406 -6.53125 4.617188 -6.351562 5.015625 -6 C 5.410156 -5.65625 5.609375 -5.191406 5.609375 -4.609375 C 5.609375 -4.160156 5.515625 -3.796875 5.328125 -3.515625 C 5.140625 -3.234375 4.863281 -3.023438 4.5 -2.890625 Z M 1.765625 -5.796875 L 1.765625 -3.328125 L 3.40625 -3.328125 C 3.820312 -3.328125 4.144531 -3.4375 4.375 -3.65625 C 4.601562 -3.875 4.71875 -4.175781 4.71875 -4.5625 C 4.71875 -4.9375 4.585938 -5.234375 4.328125 -5.453125 C 4.078125 -5.679688 3.742188 -5.796875 3.328125 -5.796875 Z M 1.765625 -5.796875 "/></g></g><g style="fill:#ffffff;fill-opacity:1;"><g transform="translate(184.076659, 254.397317)"><path style="stroke:none" d=""/></g></g><g style="fill:#ffffff;fill-opacity:1;"><g transform="translate(193.220293, 254.397317)"><path style="stroke:none" d="M 2.96875 0 L 2.59375 0 C 2.425781 0 2.34375 -0.0820312 2.34375 -0.25 L 2.34375 -5.796875 L 0.40625 -5.796875 C 0.226562 -5.796875 0.140625 -5.878906 0.140625 -6.046875 L 0.140625 -6.28125 C 0.140625 -6.445312 0.226562 -6.53125 0.40625 -6.53125 L 5.1875 -6.53125 C 5.351562 -6.53125 5.4375 -6.445312 5.4375 -6.28125 L 5.4375 -6.046875 C 5.4375 -5.878906 5.351562 -5.796875 5.1875 -5.796875 L 3.21875 -5.796875 L 3.21875 -0.25 C 3.21875 -0.0820312 3.132812 0 2.96875 0 Z M 2.96875 0 "/></g></g><g style="fill:#ffffff;fill-opacity:1;"><g transform="translate(205.516214, 254.397317)"><path style="stroke:none" d="M 4.5 -2.890625 L 5.96875 -0.265625 C 6.019531 -0.191406 6.023438 -0.128906 5.984375 -0.078125 C 5.953125 -0.0234375 5.890625 0 5.796875 0 L 5.328125 0 C 5.234375 0 5.164062 -0.0195312 5.125 -0.0625 C 5.09375 -0.101562 5.054688 -0.160156 5.015625 -0.234375 L 3.671875 -2.71875 C 3.628906 -2.707031 3.582031 -2.703125 3.53125 -2.703125 C 3.488281 -2.703125 3.445312 -2.703125 3.40625 -2.703125 L 1.765625 -2.703125 L 1.765625 -0.25 C 1.765625 -0.0820312 1.679688 0 1.515625 0 L 1.140625 0 C 0.972656 0 0.890625 -0.0820312 0.890625 -0.25 L 0.890625 -6.28125 C 0.890625 -6.445312 0.972656 -6.53125 1.140625 -6.53125 L 3.359375 -6.53125 C 4.066406 -6.53125 4.617188 -6.351562 5.015625 -6 C 5.410156 -5.65625 5.609375 -5.191406 5.609375 -4.609375 C 5.609375 -4.160156 5.515625 -3.796875 5.328125 -3.515625 C 5.140625 -3.234375 4.863281 -3.023438 4.5 -2.890625 Z M 1.765625 -5.796875 L 1.765625 -3.328125 L 3.40625 -3.328125 C 3.820312 -3.328125 4.144531 -3.4375 4.375 -3.65625 C 4.601562 -3.875 4.71875 -4.175781 4.71875 -4.5625 C 4.71875 -4.9375 4.585938 -5.234375 4.328125 -5.453125 C 4.078125 -5.679688 3.742188 -5.796875 3.328125 -5.796875 Z M 1.765625 -5.796875 "/></g></g><g style="fill:#ffffff;fill-opacity:1;"><g transform="translate(218.544991, 254.397317)"><path style="stroke:none" d="M 1.515625 0 L 1.140625 0 C 0.972656 0 0.890625 -0.0820312 0.890625 -0.25 L 0.890625 -6.28125 C 0.890625 -6.445312 0.972656 -6.53125 1.140625 -6.53125 L 1.515625 -6.53125 C 1.679688 -6.53125 1.765625 -6.445312 1.765625 -6.28125 L 1.765625 -0.25 C 1.765625 -0.0820312 1.679688 0 1.515625 0 Z M 1.515625 0 "/></g></g><g style="fill:#ffffff;fill-opacity:1;"><g transform="translate(227.919521, 254.397317)"><path style="stroke:none" d="M 4.375 -3.4375 C 4.769531 -3.320312 5.09375 -3.125 5.34375 -2.84375 C 5.601562 -2.570312 5.734375 -2.21875 5.734375 -1.78125 C 5.734375 -1.238281 5.539062 -0.804688 5.15625 -0.484375 C 4.769531 -0.160156 4.257812 0 3.625 0 L 1.140625 0 C 0.972656 0 0.890625 -0.0820312 0.890625 -0.25 L 0.890625 -6.28125 C 0.890625 -6.445312 0.972656 -6.53125 1.140625 -6.53125 L 3.421875 -6.53125 C 4.035156 -6.53125 4.53125 -6.378906 4.90625 -6.078125 C 5.28125 -5.773438 5.46875 -5.375 5.46875 -4.875 C 5.46875 -4.53125 5.367188 -4.234375 5.171875 -3.984375 C 4.972656 -3.734375 4.707031 -3.550781 4.375 -3.4375 Z M 3.296875 -5.875 L 1.78125 -5.875 L 1.78125 -3.671875 L 3.390625 -3.671875 C 3.753906 -3.671875 4.046875 -3.769531 4.265625 -3.96875 C 4.492188 -4.164062 4.609375 -4.429688 4.609375 -4.765625 C 4.609375 -5.097656 4.488281 -5.363281 4.25 -5.5625 C 4.007812 -5.769531 3.691406 -5.875 3.296875 -5.875 Z M 1.765625 -0.65625 L 3.515625 -0.65625 C 3.921875 -0.65625 4.25 -0.765625 4.5 -0.984375 C 4.75 -1.210938 4.875 -1.507812 4.875 -1.875 C 4.875 -2.238281 4.738281 -2.53125 4.46875 -2.75 C 4.207031 -2.976562 3.859375 -3.09375 3.421875 -3.09375 L 1.78125 -3.09375 Z M 1.765625 -0.65625 "/></g></g><g style="fill:#ffffff;fill-opacity:1;"><g transform="translate(240.857947, 254.397317)"><path style="stroke:none" d="M 3.609375 0.125 C 3.046875 0.125 2.550781 0.00390625 2.125 -0.234375 C 1.707031 -0.472656 1.378906 -0.804688 1.140625 -1.234375 C 0.910156 -1.671875 0.796875 -2.175781 0.796875 -2.75 L 0.796875 -6.28125 C 0.796875 -6.445312 0.878906 -6.53125 1.046875 -6.53125 L 1.421875 -6.53125 C 1.585938 -6.53125 1.671875 -6.445312 1.671875 -6.28125 L 1.671875 -2.703125 C 1.671875 -2.296875 1.753906 -1.941406 1.921875 -1.640625 C 2.085938 -1.335938 2.316406 -1.097656 2.609375 -0.921875 C 2.898438 -0.753906 3.234375 -0.671875 3.609375 -0.671875 C 4.003906 -0.671875 4.34375 -0.753906 4.625 -0.921875 C 4.914062 -1.097656 5.140625 -1.335938 5.296875 -1.640625 C 5.460938 -1.941406 5.546875 -2.296875 5.546875 -2.703125 L 5.546875 -6.28125 C 5.546875 -6.445312 5.628906 -6.53125 5.796875 -6.53125 L 6.15625 -6.53125 C 6.332031 -6.53125 6.421875 -6.445312 6.421875 -6.28125 L 6.421875 -2.75 C 6.421875 -2.175781 6.300781 -1.671875 6.0625 -1.234375 C 5.832031 -0.804688 5.503906 -0.472656 5.078125 -0.234375 C 4.660156 0.00390625 4.171875 0.125 3.609375 0.125 Z M 3.609375 0.125 "/></g></g><g style="fill:#ffffff;fill-opacity:1;"><g transform="translate(254.78021, 254.397317)"><path style="stroke:none" d="M 2.96875 0 L 2.59375 0 C 2.425781 0 2.34375 -0.0820312 2.34375 -0.25 L 2.34375 -5.796875 L 0.40625 -5.796875 C 0.226562 -5.796875 0.140625 -5.878906 0.140625 -6.046875 L 0.140625 -6.28125 C 0.140625 -6.445312 0.226562 -6.53125 0.40625 -6.53125 L 5.1875 -6.53125 C 5.351562 -6.53125 5.4375 -6.445312 5.4375 -6.28125 L 5.4375 -6.046875 C 5.4375 -5.878906 5.351562 -5.796875 5.1875 -5.796875 L 3.21875 -5.796875 L 3.21875 -0.25 C 3.21875 -0.0820312 3.132812 0 2.96875 0 Z M 2.96875 0 "/></g></g><g style="fill:#ffffff;fill-opacity:1;"><g transform="translate(267.076142, 254.397317)"><path style="stroke:none" d="M 2.265625 -7.28125 L 2.1875 -7.40625 C 2.144531 -7.476562 2.132812 -7.535156 2.15625 -7.578125 C 2.175781 -7.628906 2.21875 -7.675781 2.28125 -7.71875 L 3.890625 -8.71875 C 3.992188 -8.769531 4.070312 -8.789062 4.125 -8.78125 C 4.175781 -8.78125 4.222656 -8.738281 4.265625 -8.65625 L 4.40625 -8.4375 C 4.457031 -8.34375 4.46875 -8.269531 4.4375 -8.21875 C 4.414062 -8.175781 4.359375 -8.132812 4.265625 -8.09375 L 2.59375 -7.21875 C 2.4375 -7.15625 2.328125 -7.175781 2.265625 -7.28125 Z M 3.75 -6.328125 L 6.484375 -0.265625 C 6.515625 -0.191406 6.515625 -0.128906 6.484375 -0.078125 C 6.453125 -0.0234375 6.390625 0 6.296875 0 L 5.8125 0 C 5.726562 0 5.671875 -0.0195312 5.640625 -0.0625 C 5.609375 -0.101562 5.578125 -0.164062 5.546875 -0.25 L 5.046875 -1.421875 L 1.65625 -1.421875 L 1.140625 -0.25 C 1.117188 -0.164062 1.085938 -0.101562 1.046875 -0.0625 C 1.015625 -0.0195312 0.957031 0 0.875 0 L 0.421875 0 C 0.335938 0 0.273438 -0.0234375 0.234375 -0.078125 C 0.203125 -0.128906 0.203125 -0.191406 0.234375 -0.265625 L 2.96875 -6.328125 C 3.039062 -6.492188 3.160156 -6.578125 3.328125 -6.578125 L 3.390625 -6.578125 C 3.554688 -6.578125 3.675781 -6.492188 3.75 -6.328125 Z M 1.890625 -2.03125 L 4.796875 -2.03125 L 3.359375 -5.4375 Z M 1.890625 -2.03125 "/></g></g><g style="fill:#ffffff;fill-opacity:1;"><g transform="translate(280.50647, 254.397317)"><path style="stroke:none" d="M 4.5 -2.890625 L 5.96875 -0.265625 C 6.019531 -0.191406 6.023438 -0.128906 5.984375 -0.078125 C 5.953125 -0.0234375 5.890625 0 5.796875 0 L 5.328125 0 C 5.234375 0 5.164062 -0.0195312 5.125 -0.0625 C 5.09375 -0.101562 5.054688 -0.160156 5.015625 -0.234375 L 3.671875 -2.71875 C 3.628906 -2.707031 3.582031 -2.703125 3.53125 -2.703125 C 3.488281 -2.703125 3.445312 -2.703125 3.40625 -2.703125 L 1.765625 -2.703125 L 1.765625 -0.25 C 1.765625 -0.0820312 1.679688 0 1.515625 0 L 1.140625 0 C 0.972656 0 0.890625 -0.0820312 0.890625 -0.25 L 0.890625 -6.28125 C 0.890625 -6.445312 0.972656 -6.53125 1.140625 -6.53125 L 3.359375 -6.53125 C 4.066406 -6.53125 4.617188 -6.351562 5.015625 -6 C 5.410156 -5.65625 5.609375 -5.191406 5.609375 -4.609375 C 5.609375 -4.160156 5.515625 -3.796875 5.328125 -3.515625 C 5.140625 -3.234375 4.863281 -3.023438 4.5 -2.890625 Z M 1.765625 -5.796875 L 1.765625 -3.328125 L 3.40625 -3.328125 C 3.820312 -3.328125 4.144531 -3.4375 4.375 -3.65625 C 4.601562 -3.875 4.71875 -4.175781 4.71875 -4.5625 C 4.71875 -4.9375 4.585938 -5.234375 4.328125 -5.453125 C 4.078125 -5.679688 3.742188 -5.796875 3.328125 -5.796875 Z M 1.765625 -5.796875 "/></g></g><g style="fill:#ffffff;fill-opacity:1;"><g transform="translate(293.535247, 254.397317)"><path style="stroke:none" d="M 1.515625 0 L 1.140625 0 C 0.972656 0 0.890625 -0.0820312 0.890625 -0.25 L 0.890625 -6.28125 C 0.890625 -6.445312 0.972656 -6.53125 1.140625 -6.53125 L 1.515625 -6.53125 C 1.679688 -6.53125 1.765625 -6.445312 1.765625 -6.28125 L 1.765625 -0.25 C 1.765625 -0.0820312 1.679688 0 1.515625 0 Z M 1.515625 0 "/></g></g><g style="fill:#ffffff;fill-opacity:1;"><g transform="translate(302.909788, 254.397317)"><path style="stroke:none" d="M 3.953125 0.125 C 3.441406 0.125 2.972656 0.0390625 2.546875 -0.125 C 2.117188 -0.300781 1.75 -0.539062 1.4375 -0.84375 C 1.125 -1.15625 0.878906 -1.515625 0.703125 -1.921875 C 0.523438 -2.335938 0.4375 -2.785156 0.4375 -3.265625 C 0.4375 -3.742188 0.523438 -4.1875 0.703125 -4.59375 C 0.878906 -5 1.125 -5.359375 1.4375 -5.671875 C 1.75 -5.984375 2.117188 -6.222656 2.546875 -6.390625 C 2.972656 -6.554688 3.441406 -6.640625 3.953125 -6.640625 C 4.460938 -6.640625 4.929688 -6.554688 5.359375 -6.390625 C 5.785156 -6.222656 6.15625 -5.984375 6.46875 -5.671875 C 6.789062 -5.359375 7.039062 -5 7.21875 -4.59375 C 7.394531 -4.1875 7.484375 -3.742188 7.484375 -3.265625 C 7.484375 -2.785156 7.394531 -2.335938 7.21875 -1.921875 C 7.039062 -1.515625 6.789062 -1.15625 6.46875 -0.84375 C 6.15625 -0.539062 5.785156 -0.300781 5.359375 -0.125 C 4.929688 0.0390625 4.460938 0.125 3.953125 0.125 Z M 3.953125 -0.671875 C 4.453125 -0.671875 4.898438 -0.785156 5.296875 -1.015625 C 5.691406 -1.242188 6.003906 -1.554688 6.234375 -1.953125 C 6.460938 -2.347656 6.578125 -2.785156 6.578125 -3.265625 C 6.578125 -3.753906 6.460938 -4.191406 6.234375 -4.578125 C 6.003906 -4.960938 5.691406 -5.269531 5.296875 -5.5 C 4.898438 -5.738281 4.453125 -5.859375 3.953125 -5.859375 C 3.460938 -5.859375 3.019531 -5.738281 2.625 -5.5 C 2.226562 -5.269531 1.910156 -4.960938 1.671875 -4.578125 C 1.441406 -4.191406 1.328125 -3.753906 1.328125 -3.265625 C 1.328125 -2.785156 1.441406 -2.347656 1.671875 -1.953125 C 1.910156 -1.554688 2.226562 -1.242188 2.625 -1.015625 C 3.019531 -0.785156 3.460938 -0.671875 3.953125 -0.671875 Z M 3.953125 -0.671875 "/></g></g><g clip-rule="nonzero" clip-path="url(#becc0d737d)"><path style=" stroke:none;fill-rule:nonzero;fill:#eabe6c;fill-opacity:1;" d="M 240.011719 70.929688 L 243.503906 70.929688 L 243.503906 166.324219 L 240.011719 166.324219 Z M 240.011719 70.929688 "/></g><g clip-rule="nonzero" clip-path="url(#6770ea0503)"><path style=" stroke:none;fill-rule:nonzero;fill:#eabe6c;fill-opacity:1;" d="M 126.703125 70.929688 L 130.191406 70.929688 L 130.191406 166.324219 L 126.703125 166.324219 Z M 126.703125 70.929688 "/></g><g clip-rule="nonzero" clip-path="url(#e5c9ba9a56)"><path style=" stroke:none;fill-rule:nonzero;fill:#eabe6c;fill-opacity:1;" d="M 137.40625 60.226562 L 232.800781 60.226562 L 232.800781 63.71875 L 137.40625 63.71875 Z M 137.40625 60.226562 "/></g><g clip-rule="nonzero" clip-path="url(#bd3e945e80)"><path style=" stroke:none;fill-rule:nonzero;fill:#eabe6c;fill-opacity:1;" d="M 137.40625 173.535156 L 232.800781 173.535156 L 232.800781 177.027344 L 137.40625 177.027344 Z M 137.40625 173.535156 "/></g><g clip-rule="nonzero" clip-path="url(#6e68456677)"><path style=" stroke:none;fill-rule:nonzero;fill:#eabe6c;fill-opacity:1;" d="M 240.011719 63.71875 L 240.011719 70.929688 L 243.503906 70.929688 L 243.503906 60.226562 L 232.800781 60.226562 L 232.800781 63.71875 Z M 240.011719 63.71875 "/></g><g clip-rule="nonzero" clip-path="url(#9385edff8c)"><path style=" stroke:none;fill-rule:nonzero;fill:#eabe6c;fill-opacity:1;" d="M 130.191406 63.71875 L 137.40625 63.71875 L 137.40625 60.226562 L 126.703125 60.226562 L 126.703125 70.929688 L 130.191406 70.929688 Z M 130.191406 63.71875 "/></g><g clip-rule="nonzero" clip-path="url(#a27231dd3d)"><path style=" stroke:none;fill-rule:nonzero;fill:#eabe6c;fill-opacity:1;" d="M 240.011719 173.535156 L 232.800781 173.535156 L 232.800781 177.027344 L 243.503906 177.027344 L 243.503906 166.324219 L 240.011719 166.324219 Z M 240.011719 173.535156 "/></g><g clip-rule="nonzero" clip-path="url(#36ff88c817)"><path style=" stroke:none;fill-rule:nonzero;fill:#eabe6c;fill-opacity:1;" d="M 130.191406 173.535156 L 130.191406 166.324219 L 126.703125 166.324219 L 126.703125 177.027344 L 137.40625 177.027344 L 137.40625 173.535156 Z M 130.191406 173.535156 "/></g><g style="fill:#eabe6c;fill-opacity:1;"><g transform="translate(151.843038, 147.646587)"><path style="stroke:none" d="M 5.59375 10.234375 L 6.546875 8.71875 C 7.566406 9.5625 8.890625 10.238281 10.515625 10.75 C 12.140625 11.257812 14.039062 11.515625 16.21875 11.515625 C 19.519531 11.515625 22.144531 10.765625 24.09375 9.265625 C 26.039062 7.773438 27.453125 5.894531 28.328125 3.625 C 29.210938 1.363281 29.65625 -0.960938 29.65625 -3.359375 L 29.65625 -79.921875 L 36.046875 -79.921875 L 36.046875 -5.515625 C 36.046875 -3.648438 35.710938 -1.640625 35.046875 0.515625 C 34.378906 2.671875 33.285156 4.707031 31.765625 6.625 C 30.242188 8.550781 28.257812 10.113281 25.8125 11.3125 C 23.363281 12.507812 20.378906 13.109375 16.859375 13.109375 C 14.410156 13.109375 12.289062 12.878906 10.5 12.421875 C 8.71875 11.972656 7.082031 11.242188 5.59375 10.234375 Z M 5.59375 10.234375 "/></g></g><g style="fill:#eabe6c;fill-opacity:1;"><g transform="translate(156.033664, 144.921752)"><path style="stroke:none" d="M 5.390625 -67.4375 L 26.703125 -67.4375 C 31.242188 -67.4375 35.445312 -66.601562 39.3125 -64.9375 C 43.175781 -63.28125 46.546875 -60.941406 49.421875 -57.921875 C 52.304688 -54.910156 54.554688 -51.347656 56.171875 -47.234375 C 57.796875 -43.117188 58.609375 -38.613281 58.609375 -33.71875 C 58.609375 -28.820312 57.796875 -24.316406 56.171875 -20.203125 C 54.554688 -16.085938 52.304688 -12.519531 49.421875 -9.5 C 46.546875 -6.488281 43.175781 -4.148438 39.3125 -2.484375 C 35.445312 -0.828125 31.242188 0 26.703125 0 L 5.390625 0 Z M 10.796875 -62.859375 C 10.796875 -62.179688 10.796875 -60.796875 10.796875 -58.703125 C 10.796875 -56.609375 10.796875 -54.03125 10.796875 -50.96875 C 10.796875 -47.914062 10.796875 -44.601562 10.796875 -41.03125 C 10.796875 -37.457031 10.78125 -33.847656 10.75 -30.203125 C 10.726562 -26.566406 10.71875 -23.109375 10.71875 -19.828125 C 10.71875 -16.546875 10.71875 -13.65625 10.71875 -11.15625 C 10.71875 -8.664062 10.71875 -6.8125 10.71875 -5.59375 C 10.71875 -3.800781 11.007812 -2.585938 11.59375 -1.953125 C 12.175781 -1.328125 13.078125 -1.015625 14.296875 -1.015625 C 15.015625 -1.015625 15.890625 -1.015625 16.921875 -1.015625 C 17.960938 -1.015625 19 -1 20.03125 -0.96875 C 21.0625 -0.945312 21.867188 -0.9375 22.453125 -0.9375 C 26.722656 -0.9375 30.507812 -1.566406 33.8125 -2.828125 C 37.125 -4.085938 39.96875 -5.804688 42.34375 -7.984375 C 44.726562 -10.171875 46.695312 -12.65625 48.25 -15.4375 C 49.800781 -18.226562 50.945312 -21.1875 51.6875 -24.3125 C 52.425781 -27.4375 52.796875 -30.570312 52.796875 -33.71875 C 52.796875 -37.625 52.210938 -41.5 51.046875 -45.34375 C 49.878906 -49.195312 48.070312 -52.679688 45.625 -55.796875 C 43.175781 -58.921875 40.039062 -61.425781 36.21875 -63.3125 C 32.394531 -65.207031 27.804688 -66.15625 22.453125 -66.15625 C 21.867188 -66.15625 21.0625 -66.15625 20.03125 -66.15625 C 19 -66.15625 17.960938 -66.144531 16.921875 -66.125 C 15.890625 -66.101562 15.015625 -66.09375 14.296875 -66.09375 C 13.265625 -66.09375 12.457031 -65.878906 11.875 -65.453125 C 11.289062 -65.023438 10.929688 -64.160156 10.796875 -62.859375 Z M 10.796875 -62.859375 "/></g></g><g clip-rule="nonzero" clip-path="url(#ea95c77361)"><g clip-rule="nonzero" clip-path="url(#7139d828cf)"><path style=" stroke:none;fill-rule:nonzero;fill:#000000;fill-opacity:1;" d="M 179.296875 75.710938 L 190.902344 75.710938 L 190.902344 81.273438 L 179.296875 81.273438 Z M 179.296875 75.710938 "/></g></g><g clip-rule="nonzero" clip-path="url(#4e0f4b3050)"><g clip-rule="nonzero" clip-path="url(#8ead96ffca)"><path style=" stroke:none;fill-rule:nonzero;fill:#000000;fill-opacity:1;" d="M 178.386719 141.5625 L 189.996094 141.5625 L 189.996094 147.125 L 178.386719 147.125 Z M 178.386719 141.5625 "/></g></g><g style="fill:#eabe6c;fill-opacity:1;"><g transform="translate(156.033664, 144.921752)"><path style="stroke:none" d="M 5.390625 -67.4375 L 26.703125 -67.4375 C 31.242188 -67.4375 35.445312 -66.601562 39.3125 -64.9375 C 43.175781 -63.28125 46.546875 -60.941406 49.421875 -57.921875 C 52.304688 -54.910156 54.554688 -51.347656 56.171875 -47.234375 C 57.796875 -43.117188 58.609375 -38.613281 58.609375 -33.71875 C 58.609375 -28.820312 57.796875 -24.316406 56.171875 -20.203125 C 54.554688 -16.085938 52.304688 -12.519531 49.421875 -9.5 C 46.546875 -6.488281 43.175781 -4.148438 39.3125 -2.484375 C 35.445312 -0.828125 31.242188 0 26.703125 0 L 5.390625 0 Z M 10.796875 -62.859375 C 10.796875 -62.179688 10.796875 -60.796875 10.796875 -58.703125 C 10.796875 -56.609375 10.796875 -54.03125 10.796875 -50.96875 C 10.796875 -47.914062 10.796875 -44.601562 10.796875 -41.03125 C 10.796875 -37.457031 10.78125 -33.847656 10.75 -30.203125 C 10.726562 -26.566406 10.71875 -23.109375 10.71875 -19.828125 C 10.71875 -16.546875 10.71875 -13.65625 10.71875 -11.15625 C 10.71875 -8.664062 10.71875 -6.8125 10.71875 -5.59375 C 10.71875 -3.800781 11.007812 -2.585938 11.59375 -1.953125 C 12.175781 -1.328125 13.078125 -1.015625 14.296875 -1.015625 C 15.015625 -1.015625 15.890625 -1.015625 16.921875 -1.015625 C 17.960938 -1.015625 19 -1 20.03125 -0.96875 C 21.0625 -0.945312 21.867188 -0.9375 22.453125 -0.9375 C 26.722656 -0.9375 30.507812 -1.566406 33.8125 -2.828125 C 37.125 -4.085938 39.96875 -5.804688 42.34375 -7.984375 C 44.726562 -10.171875 46.695312 -12.65625 48.25 -15.4375 C 49.800781 -18.226562 50.945312 -21.1875 51.6875 -24.3125 C 52.425781 -27.4375 52.796875 -30.570312 52.796875 -33.71875 C 52.796875 -37.625 52.210938 -41.5 51.046875 -45.34375 C 49.878906 -49.195312 48.070312 -52.679688 45.625 -55.796875 C 43.175781 -58.921875 40.039062 -61.425781 36.21875 -63.3125 C 32.394531 -65.207031 27.804688 -66.15625 22.453125 -66.15625 C 21.867188 -66.15625 21.0625 -66.15625 20.03125 -66.15625 C 19 -66.15625 17.960938 -66.144531 16.921875 -66.125 C 15.890625 -66.101562 15.015625 -66.09375 14.296875 -66.09375 C 13.265625 -66.09375 12.457031 -65.878906 11.875 -65.453125 C 11.289062 -65.023438 10.929688 -64.160156 10.796875 -62.859375 Z M 10.796875 -62.859375 "/></g></g></g></svg>